<svg width="16" height="17" viewBox="0 0 16 17" fill="none" xmlns="http://www.w3.org/2000/svg">
<g clip-path="url(#clip0_1_89)">
<path d="M10.9116 7.82812C10.9116 7.27604 10.8074 6.75521 10.5991 6.26562C10.3907 5.77604 10.1043 5.35156 9.73969 4.99219C9.3751 4.63281 8.95323 4.34896 8.47406 4.14062C7.98448 3.93229 7.46364 3.82812 6.91156 3.82812C6.35948 3.82812 5.84385 3.93229 5.36469 4.14062C4.8751 4.34896 4.45062 4.63281 4.09125 4.99219C3.73187 5.35156 3.44281 5.77604 3.22406 6.26562C3.01573 6.75521 2.91156 7.27604 2.91156 7.82812C2.91156 8.38021 3.01573 8.89583 3.22406 9.375C3.44281 9.86458 3.73187 10.2891 4.09125 10.6484C4.45062 11.0078 4.8751 11.2917 5.36469 11.5C5.84385 11.7188 6.35948 11.8281 6.91156 11.8281C7.46364 11.8281 7.98448 11.7188 8.47406 11.5C8.95323 11.2917 9.3751 11.0078 9.73969 10.6484C10.1043 10.2891 10.3907 9.86458 10.5991 9.375C10.8074 8.89583 10.9116 8.38021 10.9116 7.82812ZM15.4897 15.25C15.4897 15.5625 15.3777 15.8307 15.1537 16.0547C14.9298 16.2786 14.6616 16.3906 14.3491 16.3906C14.1928 16.3906 14.0444 16.362 13.9037 16.3047C13.7631 16.2474 13.6407 16.1615 13.5366 16.0469L10.4741 13C9.95323 13.3646 9.38812 13.6406 8.77875 13.8281C8.16937 14.0156 7.54698 14.1094 6.91156 14.1094C6.04698 14.1094 5.23448 13.9427 4.47406 13.6094C3.70323 13.2865 3.03396 12.8385 2.46625 12.2656C1.89854 11.6927 1.45323 11.026 1.13031 10.2656C0.796977 9.50521 0.63031 8.69271 0.63031 7.82812C0.63031 6.95312 0.796977 6.13542 1.13031 5.375C1.45323 4.61458 1.89854 3.94792 2.46625 3.375C3.03396 2.80208 3.70323 2.35417 4.47406 2.03125C5.23448 1.69792 6.04698 1.53125 6.91156 1.53125C7.78656 1.53125 8.60427 1.69792 9.36469 2.03125C10.1251 2.35417 10.7892 2.80208 11.3569 3.375C11.9246 3.94792 12.3751 4.61458 12.7084 5.375C13.0418 6.13542 13.2084 6.95312 13.2084 7.82812C13.2084 8.45312 13.1121 9.07031 12.9194 9.67969C12.7267 10.2891 12.4532 10.8594 12.0991 11.3906L15.1616 14.4531C15.2657 14.5469 15.3465 14.6641 15.4037 14.8047C15.461 14.9453 15.4897 15.0938 15.4897 15.25Z" fill="black"/>
</g>
<defs>
<clipPath id="clip0_1_89">
<rect width="14.86" height="16" fill="white" transform="matrix(1 0 0 -1 0.630005 16.25)"/>
</clipPath>
</defs>
</svg>
