<svg width="17" height="17" viewBox="0 0 17 17" fill="none" xmlns="http://www.w3.org/2000/svg">
<g clip-path="url(#clip0_1_91)">
<path d="M16.6719 12.9688L16.9844 15.7656C16.9948 15.8385 16.987 15.9141 16.9609 15.9922C16.9349 16.0703 16.8958 16.1406 16.8438 16.2031C16.7917 16.2656 16.7266 16.3125 16.6484 16.3438C16.5703 16.375 16.4896 16.3906 16.4063 16.3906H1.56251C1.47918 16.3906 1.39845 16.375 1.32032 16.3438C1.2422 16.3125 1.17709 16.2656 1.12501 16.2031C1.07293 16.1406 1.03386 16.0703 1.00782 15.9922C0.98178 15.9141 0.973967 15.8385 0.984384 15.7656L1.29688 12.9688H16.6719ZM15.8438 5.46875L16.6094 12.3906H1.35938L2.12501 5.46875C2.14584 5.33333 2.21095 5.21615 2.32032 5.11719C2.4297 5.01823 2.5573 4.96875 2.70313 4.96875H4.98438V6.10938C4.98438 6.42188 5.09636 6.6901 5.32032 6.91406C5.54428 7.13802 5.81251 7.25 6.12501 7.25C6.44793 7.25 6.71876 7.13802 6.93751 6.91406C7.15626 6.6901 7.26563 6.42188 7.26563 6.10938V4.96875H10.7031V6.10938C10.7031 6.42188 10.8125 6.6901 11.0313 6.91406C11.25 7.13802 11.5208 7.25 11.8438 7.25C12.1563 7.25 12.4245 7.13802 12.6484 6.91406C12.8724 6.6901 12.9844 6.42188 12.9844 6.10938V4.96875H15.2656C15.4115 4.96875 15.5391 5.01823 15.6484 5.11719C15.7578 5.21615 15.8229 5.33333 15.8438 5.46875ZM12.4063 3.82812V6.10938C12.4063 6.26562 12.3516 6.39844 12.2422 6.50781C12.1328 6.61719 12 6.67188 11.8438 6.67188C11.6875 6.67188 11.5521 6.61719 11.4375 6.50781C11.3229 6.39844 11.2656 6.26562 11.2656 6.10938V3.82812C11.2656 3.19271 11.0417 2.65104 10.5938 2.20312C10.1458 1.75521 9.60938 1.53125 8.98438 1.53125C8.35938 1.53125 7.82293 1.75521 7.37501 2.20312C6.92709 2.65104 6.70313 3.19271 6.70313 3.82812V6.10938C6.70313 6.26562 6.64584 6.39844 6.53126 6.50781C6.41668 6.61719 6.28126 6.67188 6.12501 6.67188C5.96876 6.67188 5.83595 6.61719 5.72657 6.50781C5.6172 6.39844 5.56251 6.26562 5.56251 6.10938V3.82812C5.56251 3.34896 5.65105 2.90104 5.82813 2.48438C6.00522 2.06771 6.25001 1.70573 6.56251 1.39844C6.87501 1.09115 7.23959 0.84375 7.65626 0.65625C8.07293 0.479167 8.51563 0.390625 8.98438 0.390625C9.45313 0.390625 9.89584 0.479167 10.3125 0.65625C10.7292 0.84375 11.0938 1.09115 11.4063 1.39844C11.7188 1.70573 11.9636 2.06771 12.1406 2.48438C12.3177 2.90104 12.4063 3.34896 12.4063 3.82812Z" fill="black"/>
</g>
<defs>
<clipPath id="clip0_1_91">
<rect width="16" height="16" fill="white" transform="matrix(1 0 0 -1 0.97998 16.25)"/>
</clipPath>
</defs>
</svg>
